<?xml version="1.0" standalone="no"?>
<!DOCTYPE svg PUBLIC "-//W3C//DTD SVG 20010904//EN"
 "http://www.w3.org/TR/2001/REC-SVG-20010904/DTD/svg10.dtd">
<svg version="1.0" xmlns="http://www.w3.org/2000/svg"
 width="700.000000pt" height="700.000000pt" viewBox="0 0 700.000000 700.000000"
 preserveAspectRatio="xMidYMid meet">
<metadata>
Created by potrace 1.14, written by Peter Selinger 2001-2017
</metadata>
<g transform="translate(0.000000,700.000000) scale(0.100000,-0.100000)"
fill="#000000" stroke="none">
<path d="M3240 5969 c-334 -41 -631 -132 -916 -279 -478 -246 -870 -638 -1106
-1107 l-62 -123 -108 0 -108 0 0 -25 c0 -24 2 -25 69 -25 38 0 81 -4 94 -9
l24 -9 -48 -144 c-91 -273 -125 -509 -116 -816 9 -335 68 -605 195 -892 318
-720 960 -1250 1752 -1444 234 -58 345 -70 620 -70 262 0 356 10 577 60 960
215 1688 974 1868 1948 119 649 -16 1301 -384 1851 l-67 100 13 45 c15 50 9
98 -17 150 -38 75 -109 114 -200 108 l-57 -3 -79 69 c-177 155 -355 274 -569
377 -169 82 -268 119 -440 164 -239 63 -343 77 -615 80 -135 2 -279 -1 -320
-6z m490 -70 c491 -57 968 -281 1351 -633 l76 -70 -13 -33 c-29 -68 -11 -168
39 -221 48 -52 141 -79 208 -60 23 7 29 0 89 -95 135 -214 234 -443 295 -681
59 -229 70 -330 70 -616 -1 -219 -4 -273 -23 -380 -81 -452 -252 -823 -538
-1170 -90 -110 -294 -304 -409 -391 -570 -428 -1245 -580 -1937 -435 -99 21
-243 65 -342 105 -103 42 -266 122 -266 131 0 4 39 10 86 12 48 3 89 9 92 16
4 6 162 531 352 1166 190 636 347 1156 350 1156 3 0 164 -527 358 -1172 194
-644 354 -1173 356 -1175 3 -3 239 17 242 20 1 1 232 637 513 1412 282 776
530 1447 552 1492 48 100 81 124 178 132 57 5 66 9 66 26 0 20 -7 20 -365 20
l-365 0 -3 -21 c-3 -21 1 -22 135 -26 101 -3 146 -8 168 -20 63 -34 82 -78 65
-155 -6 -26 -205 -580 -441 -1231 -236 -650 -437 -1211 -446 -1247 -13 -55
-19 -65 -37 -65 -19 0 -23 9 -34 68 -8 50 -558 1907 -723 2441 -25 82 -65 156
-102 187 l-29 24 201 0 201 0 0 25 0 25 -480 0 -480 0 0 -24 c0 -23 3 -24 93
-28 162 -7 190 -42 287 -368 l52 -176 -305 -1014 c-168 -558 -310 -1035 -316
-1060 -5 -25 -12 -57 -16 -72 -10 -51 -31 -32 -43 40 -8 42 -168 488 -443
1227 -236 638 -440 1187 -451 1220 -12 35 -23 100 -27 155 l-6 95 -138 5 -139
5 76 150 c235 469 581 819 1036 1049 297 150 567 223 935 250 71 5 295 -3 395
-15z m-2029 -2984 c259 -720 488 -1358 510 -1417 l38 -107 -52 32 c-298 183
-615 527 -800 868 -95 176 -180 402 -230 609 -53 220 -62 304 -62 600 1 298
13 407 71 620 15 52 29 106 32 120 5 23 6 23 13 5 5 -11 220 -609 480 -1330z"/>
</g>
</svg>
